<?xml version="1.0" encoding="utf-8"?>
<!-- Uploaded to: SVG Repo, www.svgrepo.com, Generator: SVG Repo Mixer Tools -->
<svg fill="#9e9e9e" width="24px" height="24px" viewBox="0 0 32 32" version="1.1" xmlns="http://www.w3.org/2000/svg">
<title>search</title>
<path d="M30.885 29.115l-10.103-10.103c1.538-1.911 2.468-4.368 2.468-7.042 0-6.229-5.050-11.279-11.279-11.279s-11.279 5.050-11.279 11.279c0 6.229 5.050 11.279 11.279 11.279 2.674 0 5.13-0.93 7.063-2.485l-0.022 0.017 10.103 10.103c0.226 0.226 0.539 0.366 0.884 0.366 0.691 0 1.251-0.56 1.251-1.251 0-0.345-0.14-0.658-0.366-0.884l0 0zM3.25 12c0-4.832 3.918-8.75 8.75-8.75s8.75 3.918 8.75 8.75c0 4.832-3.918 8.75-8.75 8.75v0c-4.83-0.005-8.745-3.92-8.75-8.749v-0.001z"></path>
</svg>